<svg xmlns="http://www.w3.org/2000/svg" width="512" height="512" viewBox="0 0 512 512" version="1.1"><path d="M 0 256.002 L 0 512.004 256.250 511.752 L 512.500 511.500 512.752 255.750 L 513.004 0 256.502 0 L 0 0 0 256.002 M 0.492 256.500 C 0.492 397.300, 0.608 454.751, 0.750 384.170 C 0.892 313.588, 0.892 198.388, 0.750 128.170 C 0.608 57.951, 0.492 115.700, 0.492 256.500 M 154.073 27.750 C 151.959 29.471, 151.928 29.932, 152.212 55.751 L 152.500 82.001 131.428 82.001 C 114.502 82, 109.387 82.325, 105.428 83.650 C 94.421 87.336, 85.100 96.029, 79.855 107.500 C 77.773 112.053, 77.537 114.245, 77.212 132 L 76.855 151.500 52.294 151.500 C 33.697 151.500, 27.280 151.817, 25.867 152.807 C 24.286 153.913, 24 155.455, 24 162.857 C 24 168.324, 24.450 172.050, 25.200 172.800 C 26.070 173.670, 33.356 174, 51.700 174 L 77 174 77 194.500 L 77 215 52.071 215 C 30.742 215, 26.916 215.227, 25.571 216.571 C 23.432 218.711, 23.314 234.186, 25.423 235.936 C 27.501 237.661, 116.022 237.455, 117.591 235.722 C 118.199 235.050, 120.169 228.650, 121.969 221.500 C 129.961 189.748, 138.606 165.330, 146.831 151.275 C 158.393 131.517, 175.363 120.857, 190.314 123.961 C 217.494 129.604, 232.380 156.713, 249.916 232.500 C 261.280 281.616, 266.354 298.793, 273.978 313.956 C 282.752 331.406, 290.073 331.200, 299.294 313.243 C 305.583 300.997, 309.089 290.086, 318.040 254.905 C 326.249 222.641, 329.755 212.590, 336.129 203.045 C 342.640 193.295, 349.890 188.985, 359.718 189.022 C 367.472 189.051, 372.407 191.477, 378.683 198.344 C 384.746 204.977, 388.003 211.420, 392.916 226.500 L 396.500 237.500 440.410 237.761 C 480.205 237.997, 484.491 237.865, 486.160 236.356 C 487.661 234.996, 488 233.183, 488 226.500 C 488 214.410, 489.453 215, 459.671 215 L 435 215 435 194.500 L 435 174 459.845 174 C 489.555 174, 488 174.652, 488 162.194 C 488 150.575, 489.152 151.014, 459.328 151.283 L 435.206 151.500 434.837 133 C 434.471 114.611, 434.450 114.459, 431.269 107.712 C 426.992 98.638, 418.586 89.907, 410.102 85.727 L 403.553 82.500 382.276 82.179 L 361 81.858 361 56.103 C 361 30.475, 360.989 30.338, 358.686 28.174 C 356.753 26.358, 355.187 26, 349.186 26 C 337.574 26, 338 24.856, 338 56 L 338 82 318.500 82 L 299 82 299 56.174 C 299 30.472, 298.989 30.338, 296.686 28.174 C 294.767 26.372, 293.181 26, 287.408 26 C 275.415 26, 276 24.485, 276 55.557 L 276 82 256 82 L 236 82 236 55.557 C 236 24.446, 236.607 26, 224.452 26 C 218.320 26, 217.051 26.316, 215.174 28.314 C 213.058 30.567, 213 31.319, 213 56.314 L 213 82 194 82 L 175 82 175 56.039 C 175 30.620, 174.954 30.035, 172.811 28.039 C 169.841 25.271, 157.353 25.079, 154.073 27.750 M 174.345 154.439 C 164.671 164.427, 156.543 184.427, 146.598 222.715 C 140.718 245.352, 139.716 247.975, 134.826 253.545 C 128.301 260.976, 126.315 261.452, 100.250 261.827 L 77 262.161 77 270.581 L 77 279 52.155 279 C 22.589 279, 24 278.436, 24 290.257 C 24 295.833, 24.419 298.276, 25.571 299.429 C 26.916 300.773, 30.742 301, 52.071 301 L 77 301 77 321.500 L 77 342 52.155 342 C 22.327 342, 24 341.269, 24 354.294 C 24 361.808, 24.251 363.064, 25.934 363.965 C 27.117 364.598, 37.413 365, 52.434 365 L 77 365 77 382.532 C 77 397.524, 77.295 400.939, 79.037 406.110 C 82.962 417.761, 90.069 425.923, 100.974 431.305 L 107.447 434.500 129.790 435 L 152.132 435.500 152.035 461.887 C 151.919 493.699, 151.266 492, 163.598 492 C 175.552 492, 175 493.488, 175 461.256 L 175 434.957 194.065 435.228 L 213.130 435.500 213.040 461.500 C 212.929 493.429, 212.397 492, 224.402 492 C 236.672 492, 236 493.758, 236 461.671 L 236 435 256 435 L 276 435 276 461.845 C 276 493.658, 275.388 492, 287.138 492 C 299.170 492, 298.460 493.818, 298.729 462.331 L 298.958 435.500 318.479 435.229 L 338 434.958 338 461.824 C 338 493.715, 337.356 492, 349.329 492 C 361.525 492, 361 493.371, 361 461.500 L 361 435 380.395 435 C 396.933 435, 400.725 434.708, 406.145 433.017 C 417.315 429.530, 427.506 419.753, 432.220 408 C 434.160 403.165, 434.471 400.232, 434.791 383.750 L 435.156 365 459.923 365 C 489.400 365, 488 365.561, 488 353.743 C 488 348.167, 487.581 345.724, 486.429 344.571 C 485.084 343.227, 481.258 343, 459.929 343 L 435 343 435 322 L 435 301 459.845 301 C 489.387 301, 488 301.551, 488 289.826 C 488 278.519, 489.259 279, 459.671 279 L 435 279 435 270.569 L 435 262.137 412.750 261.819 C 388.285 261.468, 387.165 261.221, 380.162 254.638 C 375.762 250.501, 374.044 246.970, 369.055 231.808 C 364.693 218.553, 362.122 214, 358.996 214 C 354.681 214, 351.125 223.283, 343.101 255.500 C 340.361 266.500, 336.520 281.041, 334.565 287.812 C 322.106 330.966, 306.670 351.959, 287.376 351.990 C 273.141 352.013, 262.353 343.817, 253.004 325.879 C 244.329 309.231, 237.839 288.341, 228.033 245.500 C 218.445 203.609, 212.405 183.654, 204.716 168.466 C 197.451 154.114, 192.033 149.010, 184.057 149.004 C 179.987 149, 179.170 149.458, 174.345 154.439" stroke="none" fill="#3c3b3c" fill-rule="evenodd"/><path d="M 154.073 27.750 C 151.959 29.471, 151.928 29.932, 152.212 55.751 L 152.500 82.001 131.428 82.001 C 114.502 82, 109.387 82.325, 105.428 83.650 C 94.421 87.336, 85.100 96.029, 79.855 107.500 C 77.773 112.053, 77.537 114.245, 77.212 132 L 76.855 151.500 52.294 151.500 C 33.697 151.500, 27.280 151.817, 25.867 152.807 C 24.286 153.913, 24 155.455, 24 162.857 C 24 168.324, 24.450 172.050, 25.200 172.800 C 26.070 173.670, 33.356 174, 51.700 174 L 77 174 77 194.500 L 77 215 52.071 215 C 30.742 215, 26.916 215.227, 25.571 216.571 C 23.432 218.711, 23.314 234.186, 25.423 235.936 C 27.501 237.661, 116.022 237.455, 117.591 235.722 C 118.199 235.050, 120.169 228.650, 121.969 221.500 C 129.961 189.748, 138.606 165.330, 146.831 151.275 C 158.393 131.517, 175.363 120.857, 190.314 123.961 C 217.494 129.604, 232.380 156.713, 249.916 232.500 C 261.280 281.616, 266.354 298.793, 273.978 313.956 C 282.752 331.406, 290.073 331.200, 299.294 313.243 C 305.583 300.997, 309.089 290.086, 318.040 254.905 C 326.249 222.641, 329.755 212.590, 336.129 203.045 C 342.640 193.295, 349.890 188.985, 359.718 189.022 C 367.472 189.051, 372.407 191.477, 378.683 198.344 C 384.746 204.977, 388.003 211.420, 392.916 226.500 L 396.500 237.500 440.410 237.761 C 480.205 237.997, 484.491 237.865, 486.160 236.356 C 487.661 234.996, 488 233.183, 488 226.500 C 488 214.410, 489.453 215, 459.671 215 L 435 215 435 194.500 L 435 174 459.845 174 C 489.555 174, 488 174.652, 488 162.194 C 488 150.575, 489.152 151.014, 459.328 151.283 L 435.206 151.500 434.837 133 C 434.471 114.611, 434.450 114.459, 431.269 107.712 C 426.992 98.638, 418.586 89.907, 410.102 85.727 L 403.553 82.500 382.276 82.179 L 361 81.858 361 56.103 C 361 30.475, 360.989 30.338, 358.686 28.174 C 356.753 26.358, 355.187 26, 349.186 26 C 337.574 26, 338 24.856, 338 56 L 338 82 318.500 82 L 299 82 299 56.174 C 299 30.472, 298.989 30.338, 296.686 28.174 C 294.767 26.372, 293.181 26, 287.408 26 C 275.415 26, 276 24.485, 276 55.557 L 276 82 256 82 L 236 82 236 55.557 C 236 24.446, 236.607 26, 224.452 26 C 218.320 26, 217.051 26.316, 215.174 28.314 C 213.058 30.567, 213 31.319, 213 56.314 L 213 82 194 82 L 175 82 175 56.039 C 175 30.620, 174.954 30.035, 172.811 28.039 C 169.841 25.271, 157.353 25.079, 154.073 27.750 M 174.345 154.439 C 164.671 164.427, 156.543 184.427, 146.598 222.715 C 140.718 245.352, 139.716 247.975, 134.826 253.545 C 128.301 260.976, 126.315 261.452, 100.250 261.827 L 77 262.161 77 270.581 L 77 279 52.155 279 C 22.589 279, 24 278.436, 24 290.257 C 24 295.833, 24.419 298.276, 25.571 299.429 C 26.916 300.773, 30.742 301, 52.071 301 L 77 301 77 321.500 L 77 342 52.155 342 C 22.327 342, 24 341.269, 24 354.294 C 24 361.808, 24.251 363.064, 25.934 363.965 C 27.117 364.598, 37.413 365, 52.434 365 L 77 365 77 382.532 C 77 397.524, 77.295 400.939, 79.037 406.110 C 82.962 417.761, 90.069 425.923, 100.974 431.305 L 107.447 434.500 129.790 435 L 152.132 435.500 152.035 461.887 C 151.919 493.699, 151.266 492, 163.598 492 C 175.552 492, 175 493.488, 175 461.256 L 175 434.957 194.065 435.228 L 213.130 435.500 213.040 461.500 C 212.929 493.429, 212.397 492, 224.402 492 C 236.672 492, 236 493.758, 236 461.671 L 236 435 256 435 L 276 435 276 461.845 C 276 493.658, 275.388 492, 287.138 492 C 299.170 492, 298.460 493.818, 298.729 462.331 L 298.958 435.500 318.479 435.229 L 338 434.958 338 461.824 C 338 493.715, 337.356 492, 349.329 492 C 361.525 492, 361 493.371, 361 461.500 L 361 435 380.395 435 C 396.933 435, 400.725 434.708, 406.145 433.017 C 417.315 429.530, 427.506 419.753, 432.220 408 C 434.160 403.165, 434.471 400.232, 434.791 383.750 L 435.156 365 459.923 365 C 489.400 365, 488 365.561, 488 353.743 C 488 348.167, 487.581 345.724, 486.429 344.571 C 485.084 343.227, 481.258 343, 459.929 343 L 435 343 435 322 L 435 301 459.845 301 C 489.387 301, 488 301.551, 488 289.826 C 488 278.519, 489.259 279, 459.671 279 L 435 279 435 270.569 L 435 262.137 412.750 261.819 C 388.285 261.468, 387.165 261.221, 380.162 254.638 C 375.762 250.501, 374.044 246.970, 369.055 231.808 C 364.693 218.553, 362.122 214, 358.996 214 C 354.681 214, 351.125 223.283, 343.101 255.500 C 340.361 266.500, 336.520 281.041, 334.565 287.812 C 322.106 330.966, 306.670 351.959, 287.376 351.990 C 273.141 352.013, 262.353 343.817, 253.004 325.879 C 244.329 309.231, 237.839 288.341, 228.033 245.500 C 218.445 203.609, 212.405 183.654, 204.716 168.466 C 197.451 154.114, 192.033 149.010, 184.057 149.004 C 179.987 149, 179.170 149.458, 174.345 154.439" stroke="none" fill="#f8c543" fill-rule="evenodd"/></svg>